<svg width="340" height="340" viewBox="0 0 340 340" fill="none" xmlns="http://www.w3.org/2000/svg">
<path d="M171.992 328.705C260.893 328.705 332.962 289.882 332.962 241.992C332.962 194.101 260.893 155.278 171.992 155.278C83.0913 155.278 11.0228 194.101 11.0228 241.992C11.0228 289.882 83.0913 328.705 171.992 328.705Z" fill="#F0F0F0"/>
<path d="M171.482 274.883C196.547 274.883 216.866 263.153 216.866 248.683C216.866 234.213 196.547 222.482 171.482 222.482C146.418 222.482 126.099 234.213 126.099 248.683C126.099 263.153 146.418 274.883 171.482 274.883Z" fill="#E0E0E0"/>
<path d="M82.0692 288.803C109.597 288.803 131.913 275.919 131.913 260.025C131.913 244.132 109.597 231.248 82.0692 231.248C54.5411 231.248 32.2252 244.132 32.2252 260.025C32.2252 275.919 54.5411 288.803 82.0692 288.803Z" fill="#E0E0E0"/>
<path d="M255.673 291.421C283.201 291.421 305.517 278.537 305.517 262.643C305.517 246.75 283.201 233.866 255.673 233.866C228.145 233.866 205.829 246.75 205.829 262.643C205.829 278.537 228.145 291.421 255.673 291.421Z" fill="#E0E0E0"/>
<path d="M281.765 229.881C281.765 229.881 280.072 213.67 284.532 201.674C288.993 189.679 296.827 181.098 305.327 178.554C313.827 176.011 322.83 184.742 314.765 192.216C306.7 199.689 291.468 208.828 288.32 230.908L281.765 229.881Z" fill="#FFDFD6"/>
<path opacity="0.15" d="M281.765 229.881C281.765 229.881 280.072 213.67 284.532 201.674C288.993 189.679 296.827 181.098 305.327 178.554C313.827 176.011 322.83 184.742 314.765 192.216C306.7 199.689 291.468 208.828 288.32 230.908L281.765 229.881Z" fill="black"/>
<path d="M283.478 226.263H283.376C283.247 226.244 283.13 226.175 283.051 226.071C282.972 225.967 282.937 225.835 282.955 225.705C286.464 200.069 301.954 185.789 309.652 181.825C309.768 181.766 309.903 181.755 310.027 181.795C310.089 181.815 310.146 181.847 310.195 181.888C310.245 181.93 310.285 181.982 310.315 182.039C310.344 182.097 310.362 182.16 310.367 182.224C310.372 182.289 310.365 182.354 310.345 182.415C310.325 182.477 310.293 182.534 310.251 182.583C310.209 182.632 310.158 182.673 310.1 182.702C302.559 186.585 287.388 200.607 283.934 225.841C283.918 225.954 283.865 226.057 283.782 226.134C283.698 226.211 283.591 226.256 283.478 226.263Z" fill="white"/>
<path d="M286.015 241.679C286.221 239.664 286.069 237.629 285.566 235.668C285.076 233.566 283.812 231.588 283.71 229.384C283.628 227.63 284.723 225.644 285.967 224.461C287.212 223.278 288.946 222.38 289.809 220.837C290.673 219.293 290.489 217.308 290.918 215.546C291.382 213.589 292.59 211.889 294.286 210.807C295.981 209.724 298.031 209.344 300.002 209.746C301.838 210.127 303.457 211.147 305.136 211.976C306.791 212.899 308.696 213.271 310.576 213.037C312.638 212.641 314.728 212.414 316.826 212.357C320.396 212.357 324.884 213.574 326.108 217.348C326.457 218.272 326.491 219.286 326.203 220.232L326.162 220.347C325.128 222.904 321.871 223.428 319.777 224.679C319.206 225.026 318.247 225.508 318.029 226.202C317.812 226.896 318.41 227.848 318.709 228.487C319.471 230.139 320.572 231.73 320.674 233.6C320.81 236.273 318.58 238.843 316.329 239.979C314.117 240.982 311.685 241.405 309.264 241.21C308.067 241.155 306.762 241.053 305.776 241.74C305.373 242.075 305.045 242.489 304.811 242.957C304.577 243.426 304.442 243.937 304.416 244.46C304.286 245.494 304.382 246.548 304.286 247.588C304.077 249.226 303.431 250.779 302.417 252.082C301.402 253.386 300.057 254.394 298.52 255C295.949 255.976 293.104 255.942 290.557 254.905C288.463 254.082 286.668 251.566 286.26 249.376C285.833 246.833 285.751 244.244 286.015 241.679Z" fill="#FFDFD6"/>
<path d="M286.878 247.785H286.844C286.793 247.778 286.744 247.76 286.699 247.733C286.654 247.707 286.616 247.672 286.585 247.63C286.554 247.588 286.531 247.541 286.519 247.49C286.506 247.44 286.503 247.388 286.511 247.336C289.966 222.679 314.711 216.158 320.647 215.866C320.751 215.862 320.853 215.899 320.93 215.969C321.008 216.039 321.055 216.136 321.062 216.24C321.066 216.292 321.059 216.344 321.042 216.393C321.025 216.443 320.998 216.488 320.963 216.527C320.928 216.566 320.886 216.597 320.839 216.619C320.791 216.641 320.74 216.653 320.688 216.655C314.874 216.94 290.673 223.319 287.293 247.445C287.281 247.544 287.231 247.635 287.154 247.698C287.077 247.762 286.978 247.793 286.878 247.785Z" fill="white"/>
<path d="M313.364 232.274C313.283 232.271 313.205 232.242 313.14 232.193C313.072 232.138 305.884 226.59 295.426 229.473C295.376 229.487 295.324 229.492 295.273 229.486C295.222 229.48 295.172 229.464 295.127 229.438C295.082 229.413 295.043 229.379 295.011 229.338C294.98 229.297 294.957 229.251 294.943 229.201C294.916 229.099 294.93 228.99 294.982 228.899C295.034 228.807 295.121 228.74 295.222 228.711C298.314 227.808 301.567 227.597 304.75 228.094C307.933 228.592 310.967 229.784 313.636 231.588C313.717 231.654 313.769 231.75 313.781 231.854C313.792 231.958 313.762 232.063 313.698 232.145C313.657 232.192 313.605 232.228 313.547 232.25C313.489 232.273 313.426 232.281 313.364 232.274Z" fill="white"/>
<path d="M54.774 222.394C55.8688 216.186 55.6852 205.476 51.0884 194.126C46.172 181.982 38.6036 173.216 30.9808 174.406C23.8748 175.515 23.9972 184.96 32.7216 196.52C38.8416 204.626 44.7644 214.642 46.5664 225.345L50.354 239.36L54.774 222.394Z" fill="#FFDFD6"/>
<path d="M54.774 222.394C55.8688 216.186 55.6852 205.476 51.0884 194.126C46.172 181.982 38.6036 173.216 30.9808 174.406C23.8748 175.515 23.9972 184.96 32.7216 196.52C38.8416 204.626 44.7644 214.642 46.5664 225.345L50.354 239.36L54.774 222.394Z" fill="#FFDFD6"/>
<g opacity="0.15">
<path d="M54.774 222.394C55.8688 216.186 55.6852 205.476 51.0884 194.126C46.172 181.982 38.6036 173.216 30.9808 174.406C23.8748 175.515 23.9972 184.96 32.7216 196.52C38.8416 204.626 44.7644 214.642 46.5664 225.345L50.354 239.36L54.774 222.394Z" fill="black"/>
</g>
<path d="M52.9448 226.868C52.8564 226.845 52.7772 226.796 52.7176 226.727C52.6581 226.657 52.6211 226.572 52.6116 226.481C50.8844 208.026 42.5748 187.68 33.32 179.071C33.2754 179.031 33.239 178.983 33.2129 178.929C33.1869 178.876 33.1717 178.817 33.1682 178.758C33.1647 178.698 33.1731 178.638 33.1927 178.582C33.2123 178.525 33.2429 178.473 33.2826 178.429C33.3223 178.384 33.3705 178.348 33.4243 178.321C33.4781 178.295 33.5365 178.28 33.5962 178.277C33.6558 178.273 33.7156 178.282 33.7721 178.301C33.8285 178.321 33.8806 178.351 33.9252 178.391C43.3568 187.095 51.782 207.72 53.5296 226.365C53.541 226.483 53.5052 226.601 53.43 226.693C53.3548 226.784 53.2464 226.843 53.1284 226.855C53.0682 226.869 53.0063 226.873 52.9448 226.868Z" fill="white"/>
<path d="M51.8364 242.59C47.9417 245.125 43.4483 246.591 38.8076 246.84C30.7836 247.398 27.6284 243.311 27.6284 243.311C27.6284 243.311 31.3956 236.164 36.0672 234.471C36.0672 234.471 28.3152 235.348 21.8416 238.891C21.8416 238.891 17.0068 238.544 15.7216 230.996C15.7216 230.996 18.9788 226.814 28.7912 225.257C28.7912 225.257 23.0792 223.278 14.4704 224.686C13.7904 224.876 11.9612 215.104 11.5328 210.637C11.1044 206.169 12.8928 206.366 16.3812 205.754C19.8696 205.142 31.62 205.591 33.5988 207.665C35.5776 209.739 36.1012 216.288 36.1012 216.288C36.1012 216.288 38.6444 211.922 38.1412 207.958C41.2729 207.883 44.3804 208.524 47.226 209.834C48.076 210.229 48.5316 216.798 46.0224 221.802C48.6493 219.19 50.548 215.936 51.5304 212.364C56.2088 215.866 57.3104 220.028 57.6504 223.754C58.0312 228.147 57.3648 237.32 51.8364 242.59Z" fill="#FFDFD6"/>
<path d="M51.7956 243.032C51.7122 243.026 51.6324 242.996 51.5659 242.945C51.4994 242.894 51.4493 242.825 51.4216 242.746C46.1992 228.922 23.8204 211.419 15.4632 209.018C15.4064 209.002 15.3535 208.975 15.3073 208.938C15.2612 208.901 15.2228 208.855 15.1944 208.803C15.166 208.751 15.148 208.694 15.1417 208.636C15.1353 208.577 15.1406 208.518 15.1572 208.461C15.1919 208.349 15.2686 208.254 15.3712 208.197C15.4738 208.14 15.5945 208.125 15.708 208.155C24.2012 210.603 46.954 228.385 52.258 242.434C52.2976 242.545 52.292 242.667 52.2424 242.774C52.1928 242.88 52.1032 242.963 51.9928 243.005C51.9306 243.031 51.8626 243.04 51.7956 243.032Z" fill="white"/>
<path d="M131.73 104.04L103.72 91.6097L103.04 76.3097C108.48 75.9833 110.201 77.1665 112.649 78.6829C116.232 80.8929 128.561 87.2373 134.368 89.9641L140.971 71.6041C142.872 71.3587 144.74 70.9026 146.54 70.2441C148.498 69.3601 150.681 70.5161 150.681 70.5161C150.681 70.5161 144.84 98.8041 142.637 104.04C141.379 107.012 136.558 106.148 131.73 104.04Z" fill="#FFA8A7"/>
<path d="M103.047 76.2757C103.047 76.2757 106.678 75.1673 111.588 77.6357C116.498 80.1041 127.65 86.1561 127.65 86.1561C127.65 86.1561 124.25 95.4517 120.258 100.402L106.168 94.3909L103.047 76.2757Z" fill="#455A64"/>
<path d="M146.928 197.044C147.098 188.843 148.702 183.199 148.893 180.928C148.893 180.928 148.288 132.165 148.288 124.256L189.863 122.563C189.863 122.563 188.503 173.733 188.503 180.506C188.503 187.279 184.192 221.306 182.92 234.695C180.513 237.837 177.698 238.054 173.917 234.981C173.917 234.981 173.604 233.111 173.114 226.936C172.543 219.871 171.414 203.422 171.346 196.5C171.265 187.972 171.197 184.212 171.442 180.105C171.734 175.406 170.605 143.704 170.605 143.704C170.605 143.704 165.396 173.944 164.098 184.212C162.615 195.983 157.855 230.452 157.842 237.612C157.842 238.898 157.842 240.387 157.842 241.998C157.842 245.874 157.733 246.901 158.352 248.404C159.44 251.029 150.144 252.674 149.716 250.811L148.716 243.107V242.882V238C148.757 230.69 146.683 208.93 146.928 197.044Z" fill="#B16668"/>
<path d="M201.28 247.221C201.531 247.975 201.485 248.798 201.151 249.519C200.831 250.199 197.322 252.171 192.59 251.852C189.083 251.613 185.704 250.439 182.804 248.452C180.996 247.255 179.119 247.03 176.78 246.901C174.44 246.772 171.34 245.596 170.843 244.501C170.347 243.406 170.918 241.516 170.918 241.516L201.28 247.221Z" fill="#263238"/>
<path d="M182.199 232.458L182.573 232.376C182.777 232.321 182.99 232.31 183.199 232.342C183.428 232.413 183.632 232.551 183.784 232.737C184.247 233.329 184.653 233.964 184.994 234.634C185.987 236.252 188.068 237.592 190.339 238.816C191.889 239.646 193.406 240.292 194.997 241.012C196.588 241.733 198.784 242.189 200.063 243.052C201.919 244.304 202.157 247.452 200.063 248.696C198.24 249.764 193.433 250.927 188.401 249.499C185.681 248.724 182.607 245.793 179.01 245.507C176.718 245.33 172.387 244.684 170.911 242.944C170.367 242.175 171.095 239.727 171.693 237.619C172.373 235.314 172.836 231.696 173.597 231.9C173.622 232.315 173.667 232.728 173.733 233.138C173.815 233.492 174.196 233.818 174.413 234.09L175.297 235.11C175.653 235.583 176.099 235.98 176.61 236.28C177.514 236.742 178.595 236.545 179.588 236.334C179.636 236.334 179.18 234.525 179.132 234.348C179.084 234.209 179.073 234.059 179.098 233.913C179.158 233.772 179.263 233.654 179.398 233.58C180.242 233.013 181.197 232.631 182.199 232.458Z" fill="#455A64"/>
<path d="M167.409 260.63C167.688 260.896 167.606 262.67 167.294 263.18C166.981 263.69 165.063 265.322 161.622 265.574C158.331 265.805 155.394 265.363 153.462 264.139C151.531 262.915 150.6 261.562 150.416 259.685C150.232 257.808 150.416 256.006 149.552 254.565C148.73 253.205 147.41 251.736 147.125 251.008C146.506 249.444 147.125 247.194 147.125 247.194L167.409 260.63Z" fill="#263238"/>
<path d="M158.44 244.276C158.468 244.987 158.596 245.69 158.821 246.364C159.333 247.815 160.017 249.198 160.861 250.485C161.27 251.161 161.724 251.808 162.221 252.423C163.214 253.606 164.451 254.572 165.505 255.707C166.632 256.777 167.353 258.205 167.545 259.746C167.688 262.324 164.886 263.201 162.731 263.588C160.399 263.996 158.006 263.875 155.727 263.235C154.53 262.922 153.449 262.27 152.614 261.358C151.778 260.447 151.223 259.313 151.014 258.094C150.892 257.38 150.94 256.646 150.851 255.925C150.568 254.278 149.879 252.729 148.845 251.416C148.247 250.653 147.732 249.828 147.308 248.955C146.628 247.364 147.172 245.555 147.608 243.977C147.975 242.617 148.396 241.046 148.879 241.176C148.879 241.89 148.879 241.964 149.389 242.447C150.069 243.059 150.069 243.977 150.749 244.487C150.528 243.893 150.368 243.278 150.273 242.651C150.23 242.399 150.281 242.141 150.416 241.924C150.644 241.722 150.917 241.578 151.212 241.502C152.227 241.156 153.275 240.917 154.34 240.788C155.353 240.618 156.387 240.618 157.4 240.788C157.7 240.841 157.972 240.997 158.168 241.23C158.345 241.491 158.44 241.799 158.44 242.114C158.44 242.529 158.386 243.596 158.44 244.276Z" fill="#455A64"/>
<path d="M161.16 251.029C160.201 250.308 158.052 250.294 156.876 250.424C155.679 250.524 154.527 250.929 153.53 251.6C153.382 251.703 153.203 251.752 153.023 251.737C152.843 251.722 152.674 251.645 152.544 251.518C152.469 251.446 152.41 251.358 152.372 251.26C152.334 251.163 152.318 251.058 152.325 250.953C152.332 250.849 152.362 250.747 152.413 250.656C152.464 250.564 152.534 250.485 152.619 250.424C153.719 249.624 155.023 249.153 156.38 249.064C159.276 248.86 160.126 249.356 160.126 249.356C160.126 249.356 161.432 250.172 161.16 251.029Z" fill="#F5F5F5"/>
<path d="M163.356 253.64C162.153 252.926 159.78 253.028 158.596 253.157C157.423 253.275 156.301 253.702 155.346 254.395C155.2 254.502 155.02 254.553 154.839 254.539C154.659 254.526 154.489 254.448 154.36 254.32C154.285 254.247 154.227 254.159 154.19 254.061C154.153 253.964 154.138 253.86 154.145 253.755C154.152 253.651 154.181 253.55 154.231 253.458C154.282 253.367 154.351 253.287 154.435 253.225C155.551 252.377 156.881 251.856 158.277 251.722C161.174 251.518 161.928 252.11 161.928 252.11C162.267 252.239 162.572 252.445 162.82 252.71C163.067 252.975 163.251 253.293 163.356 253.64Z" fill="#F5F5F5"/>
<path d="M155.217 246.255C156.436 246.044 157.688 246.15 158.855 246.561C159.365 246.847 159.698 247.656 159.372 247.86C158.351 247.446 157.243 247.294 156.148 247.418C155.062 247.523 154.002 247.813 153.014 248.275C152.769 248.384 152.47 248.54 152.218 248.683C152.137 248.729 152.047 248.759 151.953 248.769C151.86 248.779 151.766 248.769 151.677 248.741C151.587 248.713 151.505 248.667 151.434 248.605C151.363 248.544 151.306 248.468 151.266 248.384C151.196 248.24 151.184 248.076 151.23 247.923C151.277 247.77 151.38 247.641 151.518 247.561C152.642 246.865 153.904 246.42 155.217 246.255Z" fill="#F5F5F5"/>
<path d="M188.204 237.572C188.039 237.256 187.798 236.986 187.502 236.788C187.206 236.59 186.865 236.469 186.51 236.436C185.47 236.246 183.627 237.014 182.485 237.952C182.376 238.041 182.29 238.154 182.236 238.283C182.181 238.412 182.158 238.553 182.17 238.692C182.183 238.832 182.229 238.966 182.305 239.084C182.381 239.201 182.485 239.299 182.607 239.367C182.762 239.453 182.939 239.488 183.114 239.469C183.29 239.449 183.455 239.376 183.586 239.258C184.847 238.115 186.503 237.51 188.204 237.572Z" fill="#F5F5F5"/>
<path d="M191.434 239.36C191.207 239.039 190.906 238.778 190.557 238.598C190.208 238.418 189.82 238.325 189.428 238.326C189.428 238.326 186.708 238.408 185.021 239.972C184.919 240.058 184.839 240.168 184.788 240.291C184.737 240.415 184.716 240.549 184.727 240.682C184.739 240.815 184.782 240.944 184.853 241.057C184.924 241.17 185.022 241.264 185.137 241.332C185.285 241.414 185.455 241.448 185.624 241.429C185.792 241.409 185.95 241.337 186.075 241.223C186.772 240.531 187.615 240.004 188.542 239.681C189.47 239.359 190.458 239.249 191.434 239.36Z" fill="#F5F5F5"/>
<path d="M194.997 241.012C194.739 240.715 194.419 240.476 194.06 240.314C193.7 240.152 193.31 240.07 192.916 240.074C191.37 240.168 189.893 240.752 188.7 241.74C188.598 241.826 188.518 241.936 188.467 242.059C188.416 242.183 188.395 242.317 188.406 242.45C188.418 242.583 188.461 242.712 188.532 242.825C188.603 242.938 188.7 243.032 188.816 243.1C188.964 243.183 189.134 243.216 189.302 243.197C189.471 243.177 189.629 243.105 189.754 242.991C190.413 242.275 191.23 241.723 192.14 241.379C193.051 241.035 194.029 240.91 194.997 241.012Z" fill="#F5F5F5"/>
<path d="M164.757 186.497L168.919 158.936L170.68 181.077C170.823 182.886 170.36 189.591 170.476 195.126C170.592 200.661 172.999 225.563 172.999 225.563C172.999 225.563 177.711 228.786 183.981 225.563C184.151 225.053 187.49 196.717 187.789 193.079C188.163 188.578 188.816 184.504 188.965 180.669C189.115 176.834 189.387 168.905 189.326 162.853C189.264 156.801 189.842 122.563 189.842 122.563L147.438 122.692L146.907 180.112C146.649 181.397 145.2 193.446 145.581 199.478C145.962 205.51 148.519 233.546 148.519 233.546C148.519 233.546 152.34 235.987 158.093 233.546C158.093 233.546 161.656 204.986 162.683 199.6C163.71 194.215 164.39 188.918 164.757 186.497Z" fill="#37474F"/>
<path d="M168.919 158.936L170.204 147.247C174.281 146.792 178.188 145.359 181.594 143.072C181.594 143.072 180.914 144.568 177.358 146.9C175.919 147.838 174.339 148.541 172.679 148.981L171.36 158.284L170.68 180.669L168.919 158.936Z" fill="#263238"/>
<path d="M179.86 62.8865C185.354 62.8865 187.823 63.9269 190.502 67.1909C193.181 70.4549 205.918 87.5909 205.918 87.5909C205.918 87.5909 214.921 79.0297 219.518 74.7729C222.387 71.8217 225.202 68.9317 228.283 68.0477C231.499 67.1229 229.894 73.1069 231.173 73.5965L227.372 79.1317C227.372 79.1317 213.343 97.8045 208.44 100.701C206.74 101.708 204.945 103.87 200.206 100.021C193.984 94.9553 182.696 82.2393 182.696 82.2393L179.86 62.8865Z" fill="#B16668"/>
<path d="M177.63 62.8796C182.702 62.0228 185.919 61.7032 190.502 66.5244C195.085 71.3456 203.952 84.9524 203.952 84.9524C203.952 84.9524 203.429 91.936 194.432 94.6696L180.526 84.9524L177.63 62.8796Z" fill="#455A64"/>
<path d="M146.928 128.52C152.633 132.675 178.5 137.278 190.502 128.52C190.502 128.52 190.223 94.9893 189.285 77.2413C189.237 76.4389 189.183 75.6569 189.101 74.8953C189.101 74.6437 189.04 74.3921 189.013 74.1405C188.88 73.0811 188.678 72.0316 188.408 70.9989C188.36 70.8289 188.306 70.6589 188.251 70.4889C188.141 70.1054 188.01 69.7286 187.857 69.3601C187.782 69.1629 187.7 68.9657 187.612 68.7753C187.533 68.5938 187.445 68.4168 187.347 68.2449C187.336 68.212 187.322 68.1801 187.306 68.1497C187.218 67.9797 187.116 67.8097 187.02 67.6465C186.925 67.4833 186.803 67.2929 186.674 67.1093C186.544 66.9257 186.442 66.7761 186.327 66.6265C186.211 66.4769 186.048 66.2865 185.898 66.1233C185.76 65.9631 185.612 65.811 185.456 65.6677L185.144 65.3753C185.046 65.2797 184.941 65.191 184.831 65.1101C184.695 64.9945 184.545 64.8857 184.402 64.7837C183.933 64.4553 183.437 64.1664 182.92 63.9201C182.774 63.8439 182.624 63.7758 182.471 63.7161C182.437 63.7161 182.39 63.7161 182.369 63.6685L181.832 63.4645C181.525 63.3462 181.211 63.2441 180.894 63.1585C180.574 63.0701 180.214 62.9885 179.894 62.9069C179.574 62.8253 179.078 62.9069 178.616 62.9069H177.664C177.33 62.9069 176.984 62.9069 176.644 62.9069C172.156 63.1041 167.416 62.2269 162.248 62.8525C161.908 62.9001 151.096 64.1105 148.6 65.0149C146.275 65.8649 144.18 69.9993 143.664 72.2909C142.12 79.0365 148.92 100.939 148.92 100.939L146.928 128.52Z" fill="#FFDFD6"/>
<path d="M160.732 64.1172C160.487 64.9536 162.092 67.4696 164.682 68.6324C167.273 69.7952 171.088 70.3324 173.522 69.496C175.957 68.6596 178.894 65.6268 176.331 62.9272C171.931 63.07 167.287 62.2472 162.234 62.866C162.214 62.8592 160.983 63.2808 160.732 64.1172Z" fill="#455A64"/>
<path opacity="0.3" d="M189.407 79.8185C185.055 81.3349 177.908 82.5385 168.919 83.0621C160.632 83.4736 152.325 83.0178 144.133 81.7021C145.119 87.4277 146.853 93.9421 147.954 97.7297C163.669 100.932 181.648 98.4097 189.951 95.7781C189.802 89.9573 189.638 84.5649 189.407 79.8185Z" fill="black"/>
<path d="M161.983 39.3041L160.392 41.0449L159.576 32.0553C158.93 31.9801 158.277 32.0531 157.664 32.2688C157.051 32.4844 156.496 32.837 156.04 33.2997C154.523 34.8501 155.36 39.7121 157.264 44.4721C157.264 44.4721 159.106 53.1353 159.848 54.5565C160.337 55.4363 161.149 56.092 162.112 56.3857L161.983 39.3041Z" fill="#263238"/>
<path d="M161.779 44.88C161.099 45.2948 160.086 43.9552 159.229 43.0576C158.372 42.16 155.564 40.9292 154.163 43.8736C152.762 46.818 155.4 50.8504 157.61 51.544C161.412 52.7408 161.983 50.2996 161.983 50.2996L162.241 64.294C166.226 71.502 179.71 67.8096 174.658 63.0292V59.4728C176.569 59.6122 178.487 59.6122 180.397 59.4728C183.199 59.0444 184.348 57.1064 185.198 54.0736C186.558 49.2116 187.075 45.2812 185.919 35.7136C184.654 25.228 172.455 25.1192 165.866 29.2604C159.276 33.4016 161.779 44.88 161.779 44.88Z" fill="#B16668"/>
<path d="M160.147 26.3228C162.457 25.3357 164.87 24.6082 167.341 24.1537C172.666 22.9977 178.085 21.9368 182.94 19.482C183.506 19.1134 184.169 18.9217 184.844 18.9312C186.13 19.1012 186.687 20.6517 186.742 21.9437C186.789 23.1423 186.633 24.3402 186.279 25.4864C186.667 25.1169 187.185 24.9147 187.72 24.9236C188.256 24.9326 188.767 25.1518 189.142 25.534C189.497 25.9361 189.756 26.414 189.899 26.9314C190.042 27.4488 190.064 27.9919 189.965 28.5192C189.652 30.8992 187.83 32.8848 185.674 33.9592C183.462 34.9218 181.069 35.3995 178.656 35.3601C175.299 35.4504 171.942 35.1883 168.64 34.578C167.847 34.3809 167.026 34.3211 166.212 34.4013C165.806 34.4487 165.422 34.6089 165.102 34.8637C164.782 35.1185 164.54 35.4577 164.404 35.8428C164.05 37.1688 163.683 46.1721 161.84 46.2401C161.5 46.2401 160.188 43.9757 159.331 43.1665C158.256 42.1532 157.175 34.4353 156.985 33.0073C156.961 32.8966 156.909 32.7938 156.835 32.708C155.625 31.008 157.046 28.152 158.542 27.2204C159.059 26.8897 159.595 26.59 160.147 26.3228Z" fill="#263238"/>
<path d="M157.495 32.7964C157.279 33.0501 157.015 33.2586 156.718 33.4102C156.421 33.5618 156.098 33.6535 155.766 33.68C155.433 33.7065 155.099 33.6674 154.782 33.5648C154.465 33.4622 154.172 33.2982 153.918 33.0821C153.664 32.8659 153.456 32.602 153.304 32.3053C153.153 32.0086 153.061 31.6849 153.034 31.3528C153.008 31.0207 153.047 30.6866 153.15 30.3696C153.252 30.0525 153.416 29.7589 153.632 29.5052L157.495 32.7964Z" fill="#263238"/>
<path d="M174.644 59.466C174.644 59.466 168.395 58.8676 166.212 57.7048C164.931 57.0357 163.881 55.9953 163.2 54.7196C163.528 55.9971 164.111 57.1952 164.914 58.242C166.512 60.282 174.651 61.3904 174.651 61.3904L174.644 59.466Z" fill="#9A4A4D"/>
<path d="M172.72 43.3093C172.709 43.5541 172.627 43.7905 172.483 43.9889C172.339 44.1874 172.14 44.3393 171.911 44.4257C171.682 44.5121 171.432 44.5293 171.193 44.475C170.954 44.4208 170.736 44.2975 170.567 44.1206C170.397 43.9436 170.283 43.7207 170.239 43.4796C170.195 43.2385 170.223 42.9898 170.319 42.7643C170.415 42.5389 170.575 42.3466 170.78 42.2113C170.984 42.0761 171.224 42.0039 171.469 42.0037C171.637 42.0072 171.802 42.0438 171.956 42.1113C172.11 42.1788 172.249 42.276 172.365 42.3972C172.481 42.5185 172.572 42.6614 172.633 42.8179C172.694 42.9744 172.724 43.1414 172.72 43.3093Z" fill="#263238"/>
<path d="M171.408 38.5833L168.728 40.0589C168.537 39.6922 168.495 39.2654 168.612 38.8685C168.728 38.4715 168.994 38.1353 169.354 37.9305C169.531 37.8347 169.725 37.7756 169.926 37.7566C170.126 37.7377 170.328 37.7594 170.52 37.8203C170.711 37.8812 170.889 37.9802 171.041 38.1113C171.194 38.2424 171.319 38.403 171.408 38.5833Z" fill="#263238"/>
<path d="M173.298 51.9589L176.8 53.2645C176.722 53.4976 176.597 53.7126 176.434 53.8967C176.271 54.0808 176.072 54.2303 175.85 54.3362C175.628 54.4421 175.387 54.5023 175.142 54.5133C174.896 54.5243 174.651 54.4858 174.42 54.4001C173.957 54.2129 173.583 53.856 173.374 53.4022C173.166 52.9484 173.139 52.4321 173.298 51.9589Z" fill="#9A4A4D"/>
<path d="M183.784 39.6237L181.342 37.7469C181.455 37.5798 181.6 37.4376 181.77 37.3289C181.94 37.2202 182.129 37.1474 182.328 37.1149C182.527 37.0824 182.73 37.091 182.926 37.14C183.121 37.189 183.304 37.2775 183.464 37.4001C183.795 37.6573 184.013 38.0327 184.072 38.4474C184.132 38.8621 184.029 39.2837 183.784 39.6237Z" fill="#263238"/>
<path d="M183.029 42.9488C183.033 43.1166 183.004 43.2836 182.944 43.4401C182.883 43.5966 182.792 43.7395 182.675 43.8604C182.559 43.9813 182.42 44.0778 182.265 44.1442C182.111 44.2107 181.945 44.2459 181.778 44.2476C181.519 44.2571 181.263 44.1891 181.044 44.0522C180.824 43.9154 180.65 43.716 180.544 43.4797C180.439 43.2434 180.406 42.9809 180.451 42.7259C180.495 42.4709 180.615 42.235 180.795 42.0486C180.974 41.8622 181.205 41.7336 181.459 41.6796C181.712 41.6255 181.975 41.6482 182.215 41.745C182.456 41.8417 182.661 42.008 182.806 42.2225C182.951 42.437 183.029 42.6899 183.029 42.9488Z" fill="#263238"/>
<path d="M176.99 42.0581L177.405 49.5857L181.336 48.2461L176.99 42.0581Z" fill="#9A4A4D"/>
<path d="M154.578 63.8521C146.227 64.2465 143.759 65.5589 140.978 71.5497C138.938 75.9289 128.738 102.979 126.868 107.821C125.229 112.139 125.011 114.356 128.588 117.307C132.165 120.258 135.769 123.005 139.468 125.732C141.719 127.398 143.738 129.207 146.01 130.839C149.586 133.402 153.082 136.279 156.89 138.434C161.446 141.025 169.68 144.432 174.019 139.686C174.876 138.747 175.671 137.646 175.202 136.286C174.839 135.411 174.182 134.69 173.346 134.246C172.514 133.805 171.645 133.441 170.748 133.158C168.74 132.436 166.804 131.525 164.968 130.438C166.552 129.934 168.286 130.057 169.898 129.758C170.354 129.675 170.765 129.434 171.061 129.078C171.211 128.903 171.294 128.679 171.294 128.449C171.294 128.218 171.211 127.995 171.061 127.82C170.862 127.67 170.628 127.574 170.381 127.541C168.114 127.033 165.823 126.6 163.506 126.242C161.365 125.995 159.248 125.574 157.175 124.984C153.836 123.896 151.735 121.441 149.355 119C146.751 116.328 144.269 113.56 141.875 110.69L153 84.5173C153 84.5173 158.746 69.5029 154.578 63.8521Z" fill="#B16668"/>
<path d="M155.768 63.6753C152.565 63.8521 147.608 64.2329 145.289 65.7153C142.603 67.4357 141.59 68.7617 138.924 75.2897C136.258 81.8177 131.016 95.4789 131.016 95.4789C132.814 97.8121 135.161 99.6645 137.848 100.871C140.535 102.078 143.479 102.601 146.418 102.394L155.258 81.9945C155.258 81.9945 159.372 71.1689 155.768 63.6753Z" fill="#455A64"/>
<path d="M168.504 137.36C167.45 133.042 171.387 129.35 174.583 127.16C179.513 123.76 183.886 121.72 188.965 118.674C193.589 115.886 207.747 106.032 207.747 106.032C207.747 106.032 215.07 94.5064 220.082 85.6868C226.297 74.7728 231.186 67.796 241.59 69.0472L241.495 82.212C241.495 82.212 219.286 112.39 217.92 114.016C216.553 115.641 216.002 116.368 213.656 117.416C207.298 120.353 199.254 124.025 192.862 128.01C191.036 129.129 189.608 130.794 188.782 132.77C188.095 134.352 187.208 135.84 186.143 137.197C185.624 137.86 185.065 138.491 184.47 139.087C184.069 139.482 183.328 140.291 182.723 140.23C182.579 140.207 182.442 140.151 182.324 140.066C182.206 139.981 182.11 139.869 182.043 139.74C181.91 139.474 181.842 139.18 181.846 138.883C181.805 137.068 183.138 135.483 183.321 133.668C183.321 133.504 183.11 133.586 183.076 133.43C183.042 133.273 180.241 134.898 179.996 135.062C178.998 135.755 178.04 136.505 177.126 137.306C176.202 138.101 175.284 138.917 174.338 139.686C173.898 140.115 173.342 140.407 172.739 140.528C172.136 140.649 171.51 140.592 170.938 140.366C170.333 140.08 169.799 139.661 169.378 139.141C168.956 138.62 168.658 138.012 168.504 137.36Z" fill="#FFBDA7"/>
<path d="M242.923 68.9248C239.598 68.2448 231.452 68.3332 227.766 73.2836C223.876 78.4992 211.847 98.26 211.847 98.26C211.847 98.26 214.921 104.856 223.917 107.1L239.36 86.0608L242.923 68.9248Z" fill="#455A64"/>
<path d="M271.089 273.693C271.361 274.761 271.925 277.773 277.542 277.773C283.159 277.773 286.382 275.468 287.477 272.619C288.572 269.77 287.946 267.648 287.844 265.139C287.742 262.63 289.592 261.059 290 259.699C290.605 257.72 288.952 254.993 288.952 254.993L271.089 273.693Z" fill="#263238"/>
<path d="M217.097 255.354C216.947 255.8 216.892 256.273 216.937 256.741C216.982 257.21 217.124 257.664 217.355 258.074C217.763 258.624 221.53 261.358 226.195 260.794C229.607 260.461 232.89 259.316 235.77 257.455C238.49 255.85 240.36 255.619 243.127 255.626C245.895 255.632 247.785 255.116 248.016 254.415C248.418 253.198 248.445 252.416 247.86 252.436L217.097 255.354Z" fill="#263238"/>
<path d="M282.465 208.76C281.744 202.849 279.759 197.162 276.644 192.086C276.644 192.086 273.924 151.966 271.612 130.886H230.078C230.078 130.886 231.316 185.552 231.982 193.569C232.492 199.689 236.688 238.054 236.694 238.129L237.3 244.528C240.557 246.167 243.114 245.922 245.888 243.93L246.48 238.265C246.48 238.265 249.88 213.942 250.09 208.141C250.325 203.188 249.777 198.229 248.465 193.446L253.504 166.199C253.504 166.199 257.53 185.456 259.808 196.241C262.412 208.597 277.488 249.057 277.488 249.07L278.446 252.436C278.236 256.108 287.069 253.606 286.974 250.716C286.96 250.723 284.131 221.32 282.465 208.76Z" fill="#FFBDA7"/>
<path d="M258.169 196.778C255.898 185.994 253.504 166.178 253.504 166.178L250.335 193.861C238.952 198.784 231.112 194.058 231.112 194.058C229.072 173.55 230.078 130.866 230.078 130.866H271.612C273.911 151.946 277.998 191.61 277.998 191.61C277.998 191.61 274.761 198.451 258.169 196.778Z" fill="#37474F"/>
<path d="M253.504 166.206L250.689 153.245C250.689 153.245 244.406 151.81 239.918 148.213C239.918 148.213 241.563 152.347 248.445 155.509L251.321 167.654L250.553 191.971L253.504 166.206Z" fill="#263238"/>
<path d="M278.46 252.443L278.12 251.328C277.753 251.695 277.807 252.008 277.794 253.008C277.794 253.796 277.794 254.558 277.692 255.605C277.559 256.973 277.309 258.327 276.944 259.651C276.216 262.725 275.4 263.962 273.238 267.764C272.721 268.661 271.483 270.164 271.116 271.164C270.749 272.163 270.64 273.884 271.796 274.564C275.08 276.508 280.146 275.978 283.356 274.468C284.558 273.921 285.578 273.039 286.294 271.929C287.01 270.819 287.392 269.527 287.395 268.206C287.395 267.424 287.232 266.648 287.198 265.866C287.224 264.063 287.691 262.294 288.558 260.712C289.052 259.797 289.448 258.833 289.741 257.836C290.176 256.02 289.32 254.191 288.606 252.559C287.994 251.151 287.28 249.268 286.797 249.485L286.987 250.723C286.484 251.484 284.947 252.402 283.05 252.763C281.84 253.008 278.596 253.368 278.46 252.443Z" fill="#455A64"/>
<path d="M236.953 240.897C236.524 240.897 236.089 241.23 235.328 242.345C234.28 243.874 232.928 245.171 231.356 246.153C228.534 248.139 224.067 250.145 219.477 251.865C216.974 252.797 216.498 254.585 217.321 256.224C218.62 257.516 223.033 260.542 230.282 258.332C234.777 256.972 236.361 254.66 239.578 254.252C241.849 253.96 245.793 254.585 248.112 252.708C248.846 250.954 248.254 249.186 248.023 246.752C247.792 244.317 247.01 240.421 246.242 240.577L246.106 241.862C245.487 244.684 239 244.956 237.164 243.114L236.953 240.897Z" fill="#455A64"/>
<path d="M254.47 68.3333C261.678 68.7821 271.082 68.6937 271.524 76.0785C272.204 87.4073 270.021 115.321 270.021 115.321L272.354 134.858C267.07 140.502 243.039 143.453 229.548 135.177C229.548 135.177 228.779 92.7929 229.84 86.3805C231.744 74.8205 237.381 69.3193 241.59 68.9929L254.47 68.3333Z" fill="#FFDFD6"/>
<path d="M257.72 71.9576C259.379 70.2848 259.896 68.68 258.713 68.5576C257.264 68.4556 255.809 68.3944 254.442 68.306L244.242 68.8296C244.242 68.8296 241.924 71.1688 242.61 73.1204C243.297 75.072 245.534 76.0444 248.282 75.9356C251.802 75.7785 255.149 74.3675 257.72 71.9576Z" fill="#455A64"/>
<path opacity="0.3" d="M229.704 87.4413C229.452 90.1205 229.33 95.4109 229.296 101.538C242.44 106.005 261.453 103.612 270.912 101.952C271.198 96.9817 271.47 92.9561 271.592 87.8629C256.618 91.1201 239.571 89.9097 229.704 87.4413Z" fill="black"/>
<path d="M264.364 69.3057C268.994 69.3057 272.598 69.5981 275.835 73.5761C278.1 76.3505 294.923 97.0633 296.915 100.511C298.908 103.958 299.044 105.312 296.092 109.636C293.644 113.22 280.004 133.436 275.59 138.013C271.177 142.589 265.282 143.358 262.364 142.134C259.447 140.91 255.707 137.986 262.942 134.654C268.015 132.342 270.932 129.968 271.524 127.684L271.15 124.42H273.87L283.472 104.72L266.669 86.6865C266.669 86.6865 260.916 76.6429 264.364 69.3057Z" fill="#FFBDA7"/>
<path d="M262.786 69.0132C262.786 69.0132 269.001 68.9044 271.34 69.7272C273.68 70.55 275.611 72.4472 278.909 76.5272C282.207 80.6072 291.305 92.2216 291.305 92.2216C291.305 92.2216 290.285 100.008 280.425 102.238L266.03 88.026C266.03 88.026 260.154 82.0692 262.786 69.0132Z" fill="#455A64"/>
<path d="M249.233 50.9863C254.366 47.228 255.48 40.0201 251.722 34.887C247.964 29.7539 240.756 28.6393 235.623 32.3976C230.49 36.1558 229.375 43.3637 233.133 48.4969C236.892 53.63 244.099 54.7445 249.233 50.9863Z" fill="#263238"/>
<path d="M262.48 49.5789C262.48 49.5789 260.739 58.3781 260.012 59.8401C259.52 60.738 258.698 61.4089 257.72 61.7101V55.5425L262.48 49.5789Z" fill="#263238"/>
<path d="M259.93 37.06C260.581 36.9722 261.244 37.0344 261.867 37.2418C262.491 37.4492 263.058 37.7964 263.527 38.2568C265.091 39.8072 264.309 44.7372 262.466 49.5788L258.964 50.0344L259.93 37.06Z" fill="#263238"/>
<path d="M257.904 50.0548C258.618 50.4696 259.604 49.096 260.46 48.1712C261.317 47.2464 264.132 45.9612 265.594 48.926C267.056 51.8908 264.452 55.998 262.228 56.7324C258.4 58.004 257.781 55.5424 257.781 55.5424L257.72 69.8224C253.035 76.0376 239.741 75.7248 245.174 69.2308L245.12 65.0012C245.12 65.0012 241.638 65.586 239.938 65.348C237.096 64.9536 235.28 62.7504 234.376 59.6972C232.92 54.8012 232.336 50.8572 233.349 41.1332C234.471 30.5048 246.806 30.1988 253.538 34.2924C260.27 38.386 257.904 50.0548 257.904 50.0548Z" fill="#FFBDA7"/>
<path d="M257.924 51.2448C258.278 51.2448 259.59 48.9872 260.46 48.1712C261.657 47.0492 259.93 37.06 259.93 37.06C260.336 36.1718 260.466 35.182 260.302 34.2191C260.138 33.2563 259.689 32.3649 259.012 31.6608C257.319 29.852 254.932 27.6556 247.452 28.662C242.073 29.3828 236.239 31.1576 231.465 28.9068C231.053 30.4509 231.109 32.0826 231.626 33.5947C232.143 35.1069 233.098 36.4313 234.369 37.4C234.369 37.4 236.103 38.4744 240.618 38.9572C245.133 39.44 252.178 38.6716 253.11 38.522C254.415 38.3248 254.714 39.5896 255.476 43.0372C256.142 46.0972 256.734 51.238 257.924 51.2448Z" fill="#263238"/>
<path d="M259.937 37.8352L264.16 35.4824C264.02 35.1977 263.823 34.9444 263.583 34.7377C263.342 34.531 263.062 34.3753 262.759 34.28C262.457 34.1846 262.138 34.1516 261.822 34.183C261.507 34.2144 261.201 34.3094 260.923 34.4624C260.356 34.7897 259.937 35.3229 259.754 35.9511C259.57 36.5793 259.636 37.2542 259.937 37.8352Z" fill="#263238"/>
<path d="M246.038 48.9056C246.056 49.1517 246.146 49.387 246.297 49.5825C246.448 49.778 246.652 49.9251 246.886 50.0057C247.119 50.0864 247.371 50.097 247.61 50.0363C247.849 49.9756 248.065 49.8462 248.232 49.6641C248.399 49.4821 248.508 49.2552 248.547 49.0115C248.587 48.7679 248.554 48.518 248.453 48.2928C248.352 48.0676 248.187 47.8769 247.979 47.7441C247.771 47.6114 247.529 47.5424 247.282 47.5456C247.11 47.5499 246.94 47.5888 246.784 47.6601C246.627 47.7314 246.486 47.8337 246.37 47.9607C246.254 48.0877 246.165 48.2368 246.107 48.3992C246.05 48.5616 246.027 48.7339 246.038 48.9056Z" fill="#263238"/>
<path d="M246.765 44.302L249.485 45.7504C249.671 45.3748 249.705 44.9417 249.578 44.5421C249.451 44.1426 249.174 43.8079 248.805 43.6084C248.626 43.5181 248.431 43.4644 248.231 43.4504C248.031 43.4365 247.83 43.4626 247.64 43.5271C247.45 43.5917 247.275 43.6935 247.124 43.8265C246.974 43.9596 246.852 44.1212 246.765 44.302Z" fill="#263238"/>
<path d="M234.144 45.5601L236.586 43.6153C236.468 43.4499 236.317 43.3105 236.143 43.2056C235.969 43.1006 235.776 43.0323 235.574 43.0049C235.373 42.9775 235.168 42.9916 234.973 43.0463C234.777 43.101 234.595 43.1951 234.437 43.3229C234.109 43.5864 233.896 43.966 233.842 44.3828C233.787 44.7996 233.896 45.2213 234.144 45.5601Z" fill="#263238"/>
<path d="M235.321 48.9056C235.339 49.1517 235.43 49.387 235.58 49.5825C235.731 49.778 235.936 49.9251 236.169 50.0057C236.402 50.0864 236.654 50.097 236.893 50.0363C237.132 49.9756 237.349 49.8462 237.515 49.6641C237.682 49.4821 237.791 49.2552 237.831 49.0115C237.87 48.7679 237.837 48.518 237.736 48.2928C237.635 48.0676 237.47 47.8769 237.262 47.7441C237.054 47.6114 236.812 47.5424 236.565 47.5456C236.393 47.5508 236.224 47.5904 236.068 47.662C235.912 47.7336 235.772 47.8359 235.656 47.9627C235.54 48.0895 235.45 48.2383 235.393 48.4002C235.335 48.5622 235.311 48.7341 235.321 48.9056Z" fill="#263238"/>
<path d="M245.12 65.0352C245.12 65.0352 251.328 63.818 253.511 62.662C254.661 61.9963 255.536 60.9428 255.979 59.6904C255.861 60.9308 255.389 62.111 254.619 63.0904C253.021 65.1304 245.154 66.9256 245.154 66.9256L245.12 65.0352Z" fill="#F0997A"/>
<path d="M246.452 57.5144L242.964 58.8268C243.04 59.0615 243.162 59.2785 243.323 59.4648C243.485 59.6511 243.682 59.8028 243.904 59.9107C244.126 60.0187 244.367 60.0808 244.613 60.0931C244.86 60.1055 245.106 60.068 245.337 59.9828C245.806 59.7957 246.185 59.4339 246.393 58.9736C246.601 58.5132 246.622 57.9902 246.452 57.5144Z" fill="#F0997A"/>
<path d="M242.76 47.6205L242.345 55.1481L238.415 53.8085L242.76 47.6205Z" fill="#F0997A"/>
<path d="M99.6812 69.7612L98.9536 69.836C96.5625 70.0916 94.1445 69.8735 91.8377 69.1943C89.5309 68.5151 87.3806 67.3881 85.5095 65.8776C83.6384 64.3671 82.0833 62.5027 80.9329 60.391C79.7826 58.2793 79.0596 55.9616 78.8052 53.5704C78.3197 48.913 79.7016 44.2532 82.6478 40.6136C85.5939 36.9739 89.8637 34.6517 94.52 34.1564L96.56 33.9388C101.207 33.4505 105.858 34.8214 109.497 37.752C113.136 40.6827 115.467 44.9347 115.981 49.5788C116.239 51.9748 116.022 54.3982 115.342 56.7103C114.662 59.0223 113.533 61.1774 112.019 63.0522C110.505 64.9271 108.636 66.4847 106.519 67.636C104.401 68.7872 102.078 69.5094 99.6812 69.7612Z" fill="#263238"/>
<path d="M90.27 35.1356C95.0823 33.1851 100.013 31.5408 105.033 30.2124C107.019 29.6382 109.096 29.4512 111.153 29.6616C112.177 29.7775 113.161 30.1226 114.034 30.6712C114.906 31.2197 115.644 31.9578 116.192 32.8304C117.416 35.0336 116.872 37.91 115.335 39.9228C116.684 40.332 117.872 41.1524 118.732 42.2694C119.592 43.3864 120.082 44.7442 120.133 46.1532C120.184 47.5621 119.793 48.9517 119.016 50.1279C118.239 51.3041 117.113 52.2081 115.797 52.7136C114.023 53.2791 112.138 53.4074 110.303 53.0876C106.432 52.7028 102.68 51.5295 99.28 49.64C95.8687 47.7321 93.1554 44.7853 91.5348 41.2284" fill="#263238"/>
<path d="M108.698 247.126C106.774 244.936 106.454 242.862 106.828 238.898C107.202 234.933 111.248 200.43 112.268 191.794C114.009 177.283 114.614 135.864 113.669 125.739L74.8 127.779C71.8012 134.749 69.5028 143.364 69.5844 157.019C69.6456 167.402 68.6664 195.548 68.6664 195.548C68.6664 195.548 63.8248 199.56 60.2276 207.645C57.052 214.785 52.9584 239.605 52.9584 239.605C52.6385 240.685 52.2385 241.74 51.7616 242.76C50.8855 243.767 50.3626 245.033 50.2724 246.364C50.1583 250.675 50.5025 254.985 51.2992 259.223C51.714 261.419 53.04 262.854 55.1888 263.779C55.6665 263.987 56.1844 264.087 56.7052 264.071C56.9751 264.075 57.2376 263.984 57.4464 263.813C57.8272 263.452 57.5144 262.575 57.4464 262.133C57.3535 261.425 57.3081 260.712 57.3104 259.998C57.3104 258.597 57.392 256.884 57.5212 255.49C57.7882 252.353 58.3761 249.252 59.2756 246.235L60.0712 244.46C60.0712 244.46 77.7988 210.95 82.7968 202.803C86.768 196.404 89.9504 171.265 92.9968 157.556L96.6824 190.611C95.4579 194.005 94.5229 197.497 93.8876 201.049C93.024 207.169 96.7096 231.2 97.7772 239.748C97.9779 241.33 97.955 242.932 97.7092 244.508C98.0696 248.214 100.81 249.424 103.618 251.586C105.019 252.661 111.18 256.632 114.94 257.496C118 258.176 119.204 257.04 119.66 256.183C115.683 253.578 112.006 250.54 108.698 247.126Z" fill="#FFA8A7"/>
<path d="M46.7908 247.554C46.4592 247.751 46.1732 248.015 45.9516 248.331C45.73 248.646 45.578 249.005 45.5056 249.383C45.2404 250.689 45.5804 252.43 46.0156 254.143C46.4508 255.857 46.3896 259.508 46.2196 262.167C46.0409 264.69 46.7638 267.194 48.2596 269.232C49.6604 271.055 52.1424 272.415 55.3656 272.53C58.5888 272.646 60.2684 272.211 61.4856 271.572C62.7028 270.932 63.2264 267.668 61.2136 266.914C59.2008 266.159 52.292 264.874 50.8028 258.475C49.9178 254.684 48.5704 251.016 46.7908 247.554Z" fill="#263238"/>
<path d="M51.7616 242.76C52.008 243.508 52.1275 244.292 52.1152 245.079C52.2351 245.73 52.3101 246.389 52.3396 247.051C52.3396 247.636 52.4416 248.336 52.9788 248.56C53.1985 248.626 53.4324 248.626 53.6521 248.561C53.8718 248.495 54.0678 248.368 54.2164 248.193C54.5036 247.836 54.7714 247.464 55.0188 247.078C55.3135 246.694 55.6901 246.38 56.1212 246.16C56.5523 245.94 57.0271 245.819 57.511 245.805C57.995 245.791 58.4759 245.886 58.9187 246.081C59.3616 246.277 59.7553 246.568 60.0712 246.935L59.8332 247.479C57.9454 252.118 57.5323 257.225 58.65 262.106C58.8494 263.055 59.3678 263.907 60.1188 264.52C60.7612 265.021 61.3657 265.569 61.9276 266.159C62.2086 266.457 62.4216 266.813 62.5519 267.201C62.6822 267.59 62.7267 268.002 62.6824 268.41C62.5487 269.02 62.1923 269.558 61.6828 269.919C61.1783 270.276 60.6174 270.545 60.0236 270.715C57.1698 271.657 54.0639 271.475 51.34 270.205C50.1906 269.597 49.2059 268.72 48.4704 267.648C46.9336 264.799 47.1852 262.126 47.226 259.706C47.3212 254.361 46.546 251.58 46.1516 248.894C45.7164 245.616 50.762 242.216 51.7616 242.76Z" fill="#455A64"/>
<path d="M96.1724 252.328C95.982 253.586 95.8528 254.143 97.3964 255.306C98.94 256.469 101.327 257.292 103.176 258.026C105.026 258.76 107.63 260.848 108.752 261.895C109.874 262.942 114.233 264.826 117.783 264.71C121.332 264.595 123.393 263.792 124.25 263.031C125.106 262.269 125.997 259.583 123.726 258.842C121.455 258.101 96.1724 252.328 96.1724 252.328Z" fill="#263238"/>
<path d="M97.784 243.44C97.6688 243.466 97.5625 243.522 97.4754 243.602C97.3884 243.682 97.3237 243.783 97.2876 243.896C96.9612 244.895 96.9476 246.044 96.7096 247.071C96.3492 248.683 95.9412 250.995 96.1724 252.3C96.4036 253.606 98.124 254.912 101.395 255.932C103.36 256.55 106.835 258.352 108.44 259.869C110.378 261.725 114.56 263.337 117.443 263.5C120.802 263.69 124.331 262.881 125.202 260.488C125.569 259.474 125.378 257.904 121.122 255.728C121.122 255.728 117.878 253.987 116.661 253.184C114.518 251.823 112.505 250.266 110.65 248.533C109.977 247.884 109.358 247.181 108.8 246.432C108.507 246.084 108.246 245.711 108.018 245.317C107.766 244.593 107.599 243.842 107.522 243.08C107.491 242.838 107.408 242.605 107.277 242.4C107.098 242.189 106.862 242.035 106.597 241.958C105.957 241.718 105.267 241.645 104.592 241.744C103.916 241.844 103.277 242.113 102.733 242.526C102.19 242.94 101.76 243.485 101.485 244.109C101.209 244.734 101.096 245.419 101.157 246.099C100.926 246.214 100.64 245.997 100.565 245.745C100.528 245.486 100.507 245.225 100.504 244.963C100.446 244.685 100.317 244.427 100.128 244.215C99.9397 244.002 99.6988 243.843 99.4296 243.753C98.9192 243.503 98.3507 243.394 97.784 243.44Z" fill="#455A64"/>
<path d="M91.1608 167.96C91.6504 164.261 92.854 159.229 92.854 159.229L93.874 167.824L96.0636 190.148C95.3064 192.228 94.6662 194.348 94.146 196.5C93.0376 200.811 93.16 208.06 93.84 212.82C94.52 217.58 95.9752 226.107 95.9752 226.107C102.911 229.962 108.344 226.338 108.344 226.338C108.344 226.338 109.956 216.736 111.629 202.892C113.302 189.047 114.077 175.318 114.471 163.792C114.471 163.792 116.26 135.116 111.914 115.586C106.1 119.456 89.1208 119.816 82.4228 114.226C82.4228 114.226 79.56 118.687 73.3108 128.649C68.4012 136.469 69.4484 149.267 69.088 159.929C68.5304 176.385 68.136 194.97 68.136 194.97C65.8997 197.335 63.8874 199.903 62.1248 202.64C58.9968 207.4 57.1744 218.09 57.1744 218.09C57.1744 218.09 60.0372 224.611 70.3732 225.162C70.3732 225.162 80.8996 207.128 83.5312 203.041C86.1628 198.954 90.6712 171.652 91.1608 167.96Z" fill="#37474F"/>
<path d="M92.854 159.229L97.0088 144.799C97.0088 144.799 104.258 144.214 109.997 140.23C109.997 140.23 108.698 145.513 98.702 146.812L94.0372 160.963V169.721L92.854 159.229Z" fill="#263238"/>
<path d="M116.436 89.9573C112.819 84.0277 105.441 78.2749 103.047 76.2757L88.8284 76.0037C86.0336 76.0785 81.9332 76.3301 81.9332 76.3301C78.9344 77.8329 78.982 81.5117 78.7916 84.9797C78.574 88.7877 78.5128 90.4605 79.3968 96.7777L81.0968 104.849L81.3552 106.087C81.4028 106.298 81.4436 106.515 81.4912 106.767C82.144 109.86 81.6612 113.085 80.1312 115.852C76.7312 121.972 72.7396 126.575 71.5156 131.764C73.3815 131.296 75.0971 130.36 76.5 129.044C78.6488 127.092 79.9408 126.194 81.6816 123.869C81.6816 123.869 81.7564 127.405 85.1428 132.131C86.011 133.343 87.0123 134.454 88.128 135.442C94.2888 140.882 113.193 143.67 114.247 127.153C114.247 127.153 112.431 116.668 112.173 113.152C112.785 110.14 114.505 104.938 114.573 103.775C119 99.9601 119.075 94.2753 116.436 89.9573Z" fill="#FFDFD6"/>
<path d="M88.9576 78.88C90.3176 80.5256 93.6428 84.1908 96.7504 84.8232C100.402 85.5644 104.162 85.2516 105.094 83.0008C106.026 80.75 104.237 78.03 102.592 76.2824L88.8284 76.0172H87.8288C87.7812 76.2688 87.4208 76.9692 88.9576 78.88Z" fill="#455A64"/>
<path opacity="0.3" d="M78.9888 93.6224C79.0976 94.5336 79.2268 95.574 79.3968 96.7776L81.0968 104.849L81.3552 106.087C81.4028 106.298 81.4436 106.515 81.4912 106.767C81.686 107.775 81.7726 108.801 81.7496 109.827C95.6624 114.505 106.91 112.084 112.982 109.827C113.662 107.236 114.512 104.55 114.56 103.754C116.079 102.5 117.197 100.828 117.776 98.9452C118.354 97.0623 118.369 95.051 117.817 93.16C114.58 94.826 109.793 95.8256 104.842 96.288C96.1331 97.1109 87.347 96.205 78.9888 93.6224Z" fill="black"/>
<path opacity="0.1" d="M107.719 102.925C107.719 102.925 102.959 106.93 97.2536 105.155C95.6606 104.713 94.2083 103.869 93.0363 102.703C91.8644 101.537 91.0124 100.089 90.5624 98.498C90.5624 98.498 90.2088 104.938 97.3624 106.862C104.285 108.712 107.719 102.925 107.719 102.925Z" fill="black"/>
<path d="M151.368 127.391C151.236 127.234 151.061 127.119 150.865 127.058C143.752 124.25 135.796 126.793 129.601 126.024L129.696 128.146C132.641 129.962 136.279 130.302 139.726 130.03C143.174 129.758 146.56 128.948 150.008 128.636C150.384 128.641 150.754 128.547 151.082 128.364C151.245 128.268 151.364 128.114 151.417 127.934C151.47 127.753 151.453 127.559 151.368 127.391Z" fill="#F28F8F"/>
<path d="M101.422 128.901C99.6472 128.493 96.254 127.058 95.0504 125.46C92.888 122.584 74.834 95.1729 73.7256 87.6385C72.8348 81.5729 75.684 76.2145 81.9332 76.3301C85.9588 79.2541 89.9232 90.4129 89.9232 90.4129L104.203 116.627C109.242 118.98 126.874 124.787 129.982 125.739C133.09 126.691 139.427 125.997 143.657 127.344C147.886 128.69 158.576 133.13 156.42 135.136C154.768 136.66 152.986 138.169 150.015 138.387C146.363 138.645 145.935 137.204 142.27 137.115C138.604 137.027 135.551 138.128 131.689 136.626C129.248 135.674 129.139 135.116 125.739 134.293C122.339 133.47 103.72 129.424 101.422 128.901Z" fill="#FFA8A7"/>
<path d="M83.7216 76.2213C80.5664 75.6773 76.2416 76.1465 73.5896 80.1993C70.9376 84.2521 73.27 89.8757 74.9496 93.6361C76.6292 97.3965 82.1304 106.08 82.1304 106.08C82.1304 106.08 94.0508 105.216 96.3016 99.2393C96.3016 99.2189 89.0324 83.6945 83.7216 76.2213Z" fill="#455A64"/>
<path d="M109.793 42.4457C111.765 43.7309 114.036 48.9329 113.315 59.5885C112.703 68.6189 109.677 70.7201 108.174 71.2981C106.672 71.8761 103.856 71.3593 101.116 70.7813L100.871 76.2213C100.871 76.2213 104.271 79.0705 103.911 81.5457C103.55 84.0209 97.988 84.7077 94.5268 82.1169C92.5924 80.7282 90.8817 79.0519 89.454 77.1461L90.0796 63.0837C90.0796 63.0837 88.1892 65.0285 85.2312 62.8661C84.6284 62.4276 84.1268 61.8649 83.7601 61.2159C83.3935 60.5669 83.1704 59.8468 83.1059 59.1043C83.0415 58.3617 83.1371 57.6139 83.3865 56.9114C83.6358 56.209 84.033 55.5683 84.5512 55.0325C86.4008 53.3121 89.7328 54.4001 90.3312 56.9161C90.3312 56.9161 94.2616 56.8481 100.076 53.5161C106.4 49.9393 108.052 46.1721 109.793 42.4457Z" fill="#FFA8A7"/>
<path d="M101.701 56.5761C101.693 56.7985 101.62 57.0136 101.49 57.1948C101.361 57.3759 101.182 57.5151 100.974 57.5951C100.766 57.675 100.54 57.6921 100.322 57.6444C100.105 57.5966 99.9063 57.486 99.7513 57.3264C99.5962 57.1667 99.4915 56.965 99.4502 56.7464C99.4088 56.5277 99.4326 56.3017 99.5186 56.0965C99.6045 55.8912 99.7489 55.7157 99.9338 55.5918C100.119 55.468 100.336 55.4011 100.558 55.3997C100.711 55.4005 100.862 55.4318 101.002 55.4916C101.143 55.5515 101.27 55.6387 101.376 55.7482C101.483 55.8578 101.566 55.9874 101.622 56.1295C101.678 56.2716 101.704 56.4234 101.701 56.5761Z" fill="#263238"/>
<path d="M102.68 64.498L105.903 65.6812C105.835 65.8976 105.724 66.098 105.576 66.2704C105.429 66.4428 105.248 66.5837 105.045 66.6847C104.842 66.7856 104.621 66.8445 104.394 66.8579C104.168 66.8713 103.941 66.8388 103.727 66.7624C103.294 66.593 102.944 66.2628 102.748 65.8408C102.553 65.4188 102.529 64.9377 102.68 64.498Z" fill="#F28F8F"/>
<path d="M111.792 53.72L109.562 52.02C109.666 51.8716 109.8 51.7457 109.954 51.6497C110.108 51.5537 110.28 51.4895 110.459 51.461C110.639 51.4324 110.822 51.4401 110.998 51.4836C111.175 51.5271 111.34 51.6054 111.486 51.714C111.784 51.9458 111.982 52.2829 112.039 52.656C112.095 53.0292 112.007 53.4099 111.792 53.72Z" fill="#263238"/>
<path d="M111.139 56.3924C111.144 56.5444 111.118 56.6959 111.064 56.8379C111.009 56.98 110.927 57.1098 110.822 57.2198C110.717 57.3299 110.591 57.418 110.452 57.4791C110.313 57.5402 110.163 57.573 110.01 57.5756C109.774 57.5865 109.541 57.5264 109.339 57.4032C109.137 57.2799 108.977 57.0992 108.879 56.8842C108.781 56.6691 108.75 56.4297 108.789 56.1967C108.829 55.9637 108.937 55.7479 109.1 55.5769C109.263 55.406 109.474 55.2877 109.704 55.2375C109.935 55.1873 110.176 55.2073 110.395 55.295C110.615 55.3828 110.803 55.5342 110.935 55.7297C111.068 55.9253 111.139 56.1561 111.139 56.3924Z" fill="#263238"/>
<path d="M105.618 55.4949L105.488 62.3425L109.14 61.3905L105.618 55.4949Z" fill="#F28F8F"/>
<path d="M101.116 70.7812C98.226 70.2644 92.3168 68.2856 91.494 65.8784C91.8132 67.0904 92.4968 68.1751 93.4524 68.986C95.1728 70.5976 101.034 72.59 101.034 72.59L101.116 70.7812Z" fill="#F28F8F"/>
<path d="M140.801 71.0193C140.536 65.9125 141.984 64.4165 143.806 63.1925C145.629 61.9685 152.368 60.2209 153.762 60.7105C155.156 61.2001 162.459 64.7905 162.112 68.3333C161.765 71.8761 158.44 72.7601 154.761 71.9169C151.082 71.0737 144.758 66.9121 143.405 67.5037C142.052 68.0953 140.801 71.0193 140.801 71.0193Z" fill="#FFA8A7"/>
<path d="M225.311 75.9629C226.624 75.3713 228.568 76.2281 231.56 75.6093C234.552 74.9905 236.552 73.7597 238.306 73.6169C240.06 73.4741 240.802 72.9369 239.02 71.9509C237.238 70.9649 234.131 71.3797 233.512 71.1417C234.461 70.5339 235.498 70.0752 236.586 69.7817C239.138 69.3297 241.712 69.0096 244.297 68.8229C244.44 68.8229 245.385 67.2929 240.972 66.6809C236.558 66.0689 230.092 67.0141 227.671 68.2993C225.25 69.5845 225.311 75.9629 225.311 75.9629Z" fill="#B16668"/>
<path d="M52.122 62.4716C52.1374 62.7367 52.0749 63.0005 51.9422 63.2306C51.8094 63.4606 51.6122 63.6467 51.3749 63.7659C51.1376 63.8851 50.8705 63.9323 50.6067 63.9015C50.3429 63.8707 50.0939 63.7634 49.8904 63.5928C49.6869 63.4221 49.5379 63.1956 49.4616 62.9412C49.3853 62.6868 49.3852 62.4157 49.4613 62.1612C49.5373 61.9068 49.6862 61.6801 49.8896 61.5093C50.0929 61.3385 50.3418 61.231 50.6056 61.2C50.7896 61.1783 50.9762 61.1946 51.1537 61.2476C51.3313 61.3007 51.4962 61.3895 51.6382 61.5086C51.7802 61.6277 51.8963 61.7745 51.9795 61.9401C52.0627 62.1057 52.1112 62.2866 52.122 62.4716Z" fill="#FFDFD6"/>
<path d="M55.2024 51.2312L57.3104 52.9584L59.9216 52.1968C59.977 52.1796 60.0362 52.1785 60.0922 52.1936C60.1482 52.2088 60.1987 52.2395 60.2379 52.2823C60.2771 52.325 60.3034 52.3781 60.3136 52.4352C60.3238 52.4923 60.3176 52.5511 60.2956 52.6048L59.3096 55.1412L60.8396 57.392C60.8734 57.4393 60.8929 57.4953 60.896 57.5534C60.8991 57.6115 60.8856 57.6692 60.8571 57.7199C60.8285 57.7705 60.7861 57.812 60.7349 57.8394C60.6836 57.8669 60.6256 57.8791 60.5676 57.8748L57.8476 57.7252L56.1816 59.874C56.1457 59.9186 56.0983 59.9524 56.0446 59.9719C55.9908 59.9914 55.9327 59.9958 55.8766 59.9846C55.8205 59.9733 55.7686 59.947 55.7265 59.9083C55.6843 59.8696 55.6536 59.8201 55.6376 59.7652L54.944 57.12L52.36 56.2088C52.3064 56.1888 52.2593 56.1545 52.2238 56.1096C52.1883 56.0646 52.1659 56.0108 52.1589 55.954C52.1518 55.8972 52.1605 55.8396 52.184 55.7874C52.2075 55.7352 52.2449 55.6904 52.292 55.658L54.5836 54.1824L54.672 51.4624C54.667 51.3989 54.6819 51.3354 54.7146 51.2808C54.7474 51.2262 54.7964 51.1831 54.8548 51.1577C54.9132 51.1322 54.978 51.1256 55.0404 51.1388C55.1027 51.152 55.1593 51.1843 55.2024 51.2312Z" fill="#FFDFD6"/>
<path d="M298.024 63.4235C298.445 63.4572 298.837 63.6502 299.121 63.9632C299.404 64.2762 299.558 64.6857 299.55 65.1081C299.542 65.5304 299.374 65.9339 299.079 66.2363C298.784 66.5386 298.384 66.717 297.962 66.7351C297.736 66.7448 297.51 66.7081 297.299 66.6272C297.087 66.5463 296.895 66.423 296.733 66.2648C296.57 66.1067 296.442 65.917 296.356 65.7075C296.27 65.498 296.228 65.2732 296.232 65.0468C296.237 64.8203 296.287 64.5972 296.381 64.391C296.474 64.1849 296.609 64 296.777 63.848C296.945 63.6959 297.142 63.5798 297.356 63.5068C297.571 63.4338 297.798 63.4054 298.024 63.4235Z" fill="#FFDFD6"/>
<path d="M280.194 56.0523L283.526 52.7883L282.73 48.1983C282.713 48.1006 282.723 47.9998 282.759 47.9074C282.796 47.8151 282.858 47.7349 282.938 47.6761C283.018 47.6173 283.113 47.5821 283.212 47.5747C283.312 47.5672 283.411 47.5878 283.499 47.6339L287.64 49.7963L291.761 47.6203C291.848 47.5729 291.948 47.551 292.047 47.5573C292.147 47.5637 292.242 47.5979 292.323 47.6561C292.404 47.7143 292.467 47.7941 292.505 47.8864C292.542 47.9787 292.553 48.0798 292.536 48.1779L291.72 52.7747L295.12 56.0251C295.191 56.0941 295.241 56.1815 295.265 56.2775C295.288 56.3734 295.285 56.474 295.254 56.5681C295.224 56.6621 295.168 56.7458 295.093 56.8096C295.017 56.8735 294.925 56.915 294.828 56.9295L290.217 57.6095L288.177 61.7915C288.133 61.8805 288.066 61.9554 287.982 62.0078C287.897 62.0602 287.8 62.088 287.701 62.088C287.602 62.088 287.505 62.0602 287.421 62.0078C287.337 61.9554 287.269 61.8805 287.225 61.7915L285.185 57.6095L280.568 56.9295C280.469 56.9245 280.373 56.8917 280.291 56.8348C280.21 56.778 280.146 56.6993 280.107 56.6078C280.068 56.5164 280.055 56.4158 280.071 56.3176C280.086 56.2194 280.129 56.1275 280.194 56.0523Z" fill="#FFDFD6"/>
<path d="M307.897 120.312L308.897 122.529L311.29 122.971C311.341 122.981 311.387 123.005 311.424 123.04C311.462 123.074 311.489 123.119 311.503 123.168C311.517 123.217 311.517 123.269 311.504 123.318C311.49 123.368 311.464 123.412 311.426 123.447L309.624 125.079L309.944 127.486C309.953 127.538 309.947 127.59 309.926 127.638C309.906 127.686 309.872 127.727 309.829 127.756C309.786 127.786 309.736 127.802 309.684 127.804C309.632 127.805 309.581 127.792 309.536 127.765L307.421 126.555L305.232 127.609C305.185 127.632 305.133 127.642 305.082 127.637C305.03 127.632 304.981 127.612 304.94 127.58C304.899 127.548 304.869 127.504 304.852 127.455C304.835 127.406 304.832 127.353 304.844 127.303L305.34 124.923L303.661 123.168C303.625 123.131 303.601 123.084 303.59 123.033C303.579 122.983 303.583 122.93 303.601 122.881C303.618 122.832 303.649 122.79 303.69 122.757C303.731 122.725 303.779 122.705 303.831 122.699L306.245 122.434L307.401 120.299C307.425 120.254 307.462 120.216 307.507 120.191C307.551 120.165 307.602 120.152 307.653 120.154C307.705 120.155 307.755 120.171 307.798 120.199C307.841 120.227 307.875 120.266 307.897 120.312Z" fill="#FFDFD6"/>
<path d="M41.0856 103.639L44.88 106.304L49.2456 104.666C49.3405 104.631 49.4433 104.624 49.542 104.646C49.6406 104.668 49.7309 104.717 49.8023 104.789C49.8738 104.86 49.9233 104.951 49.9452 105.049C49.967 105.148 49.9602 105.251 49.9256 105.346L48.5656 109.813L51.476 113.458C51.5383 113.535 51.5778 113.628 51.5899 113.727C51.602 113.825 51.5862 113.925 51.5445 114.015C51.5027 114.105 51.4365 114.181 51.3535 114.235C51.2705 114.29 51.1739 114.319 51.0748 114.322L46.41 114.41L43.8396 118.306C43.7849 118.389 43.708 118.455 43.6177 118.496C43.5274 118.538 43.4273 118.553 43.3288 118.54C43.2303 118.527 43.1374 118.487 43.0606 118.424C42.9838 118.361 42.9262 118.278 42.8944 118.184L41.3712 113.778L36.8696 112.54C36.7734 112.514 36.6865 112.461 36.6188 112.388C36.5511 112.315 36.5054 112.224 36.487 112.126C36.4685 112.028 36.478 111.927 36.5145 111.834C36.5509 111.741 36.6127 111.661 36.6928 111.602L40.4124 108.786L40.2016 104.128C40.1796 104.018 40.1933 103.904 40.2406 103.802C40.2879 103.7 40.3664 103.615 40.4648 103.561C40.5632 103.506 40.6763 103.484 40.7879 103.498C40.8995 103.512 41.0038 103.562 41.0856 103.639Z" fill="#FFDFD6"/>
<path d="M301.512 129.302C301.553 129.556 301.492 129.816 301.341 130.026C301.191 130.235 300.964 130.375 300.71 130.417C300.455 130.456 300.194 130.393 299.986 130.242C299.777 130.09 299.636 129.863 299.594 129.608C299.555 129.354 299.618 129.094 299.77 128.887C299.922 128.679 300.15 128.54 300.404 128.5C300.529 128.478 300.658 128.482 300.782 128.511C300.906 128.54 301.023 128.594 301.126 128.668C301.229 128.743 301.317 128.837 301.383 128.946C301.449 129.055 301.493 129.176 301.512 129.302Z" fill="#FFDFD6"/>
<path d="M55.08 108.025C55.1156 108.241 55.0866 108.462 54.9966 108.662C54.9065 108.861 54.7595 109.029 54.5741 109.145C54.3886 109.261 54.1729 109.32 53.9543 109.313C53.7356 109.307 53.5238 109.236 53.3453 109.11C53.1669 108.983 53.0299 108.807 52.9515 108.602C52.8732 108.398 52.857 108.175 52.9051 107.962C52.9531 107.748 53.0633 107.554 53.2216 107.403C53.3799 107.252 53.5793 107.151 53.7948 107.114C53.9391 107.088 54.087 107.092 54.2299 107.124C54.3728 107.156 54.508 107.216 54.6275 107.301C54.747 107.386 54.8485 107.493 54.9262 107.618C55.0039 107.742 55.0561 107.88 55.08 108.025Z" fill="#FFDFD6"/>
</svg>
